<?xml version="1.0" standalone="no"?>
<!DOCTYPE svg PUBLIC "-//W3C//DTD SVG 20010904//EN"
 "http://www.w3.org/TR/2001/REC-SVG-20010904/DTD/svg10.dtd">
<svg version="1.0" xmlns="http://www.w3.org/2000/svg"
 width="626.000000pt" height="499.000000pt" viewBox="0 0 626.000000 499.000000"
 preserveAspectRatio="xMidYMid meet">
<metadata>
Created by potrace 1.16, written by Peter Selinger 2001-2019
</metadata>
<g transform="translate(0.000000,499.000000) scale(0.100000,-0.100000)"
fill="#000000" stroke="none">
<path d="M2087 3196 c-187 -67 -247 -291 -116 -439 21 -25 59 -54 84 -66 l46
-22 -21 -27 c-36 -45 -50 -91 -50 -161 0 -109 55 -197 153 -247 17 -9 33 -18
35 -19 2 -2 -8 -19 -22 -40 -92 -135 -36 -327 116 -396 l53 -24 670 -5 c747
-6 694 0 751 -75 59 -77 37 -197 -47 -252 l-43 -28 -848 -3 -848 -2 0 -45 0
-45 150 0 150 0 0 -30 c0 -36 24 -96 48 -123 29 -32 74 -50 129 -50 95 0 163
68 163 162 l0 41 205 0 205 0 0 -35 c0 -108 107 -193 210 -165 77 21 130 88
130 165 l0 35 148 0 c170 0 216 11 280 66 147 126 113 369 -63 454 -28 13 -72
22 -136 26 -113 8 -162 31 -198 94 -19 34 -23 52 -19 100 7 101 84 169 191
170 l47 0 0 45 0 45 -112 0 c-93 0 -119 3 -156 21 -119 58 -134 223 -27 305
30 22 50 29 101 32 l64 4 0 48 0 48 -117 1 c-106 2 -122 5 -160 27 -55 32 -83
85 -83 157 0 99 84 176 193 177 l47 0 0 45 0 45 -632 0 c-505 -1 -641 -4 -671
-14z m1023 -82 c0 -3 -12 -26 -27 -52 -24 -40 -28 -58 -28 -122 0 -63 5 -85
27 -128 l27 -52 -498 0 -498 0 -34 23 c-96 64 -114 182 -42 268 59 69 54 69
591 69 265 0 482 -3 482 -6z m120 -469 c-10 -12 -81 -15 -458 -17 -416 -3
-450 -4 -485 -22 -97 -48 -125 -192 -52 -270 27 -29 18 -33 -25 -11 -95 49
-119 189 -47 272 56 64 43 62 586 63 432 0 492 -2 481 -15z m128 -455 c-13
-20 -24 -20 -457 -20 -431 0 -446 -1 -488 -21 -99 -48 -125 -196 -48 -272 29
-29 8 -32 -34 -4 -125 83 -113 256 24 318 37 17 76 19 528 19 485 0 487 0 475
-20z"/>
<path d="M3650 3165 l0 -45 235 0 235 0 0 45 0 45 -235 0 -235 0 0 -45z"/>
<path d="M3660 2710 l0 -51 103 3 102 3 0 45 0 45 -102 3 -103 3 0 -51z"/>
<path d="M4087 2754 c-4 -4 -7 -27 -7 -51 l0 -43 106 0 105 0 -3 48 -3 47 -95
3 c-53 1 -99 0 -103 -4z"/>
<path d="M3890 2255 l0 -45 235 0 235 0 0 45 0 45 -235 0 -235 0 0 -45z"/>
</g>
</svg>
